HIERARCHY
ROOT Pelvis
{
	OFFSET 0.000000 0.000000 0.000000
	CHANNELS 6 Xposition Yposition Zposition Zrotation Yrotation Xrotation 
	JOINT Left_hip
	{
		OFFSET 0.067986 -0.089946 -0.007639
		CHANNELS 3 Zrotation Yrotation Xrotation
		JOINT Left_knee
		{
			OFFSET 0.036308 -0.388288 -0.004016
			CHANNELS 3 Zrotation Yrotation Xrotation
			JOINT Left_ankle
			{
				OFFSET -0.012264 -0.413250 -0.042878
				CHANNELS 3 Zrotation Yrotation Xrotation
				JOINT Left_foot
				{
					OFFSET 0.024043 -0.058563 0.118570
					CHANNELS 3 Zrotation Yrotation Xrotation
					End Site
					{
						OFFSET 0.000000 0.000000 0.000000
					}
				}
			}
		}
	}
	JOINT Right_hip
	{
		OFFSET -0.065648 -0.089374 -0.003858
		CHANNELS 3 Zrotation Yrotation Xrotation
		JOINT Right_knee
		{
			OFFSET -0.042132 -0.395021 -0.006361
			CHANNELS 3 Zrotation Yrotation Xrotation
			JOINT Right_ankle
			{
				OFFSET 0.014805 -0.413264 -0.041054
				CHANNELS 3 Zrotation Yrotation Xrotation
				JOINT Right_foot
				{
					OFFSET -0.021758 -0.049013 0.121832
					CHANNELS 3 Zrotation Yrotation Xrotation
					End Site
					{
						OFFSET 0.000000 0.000000 0.000000
					}
				}
			}
		}
	}
	JOINT Spine1
	{
		OFFSET -0.002755 0.104406 -0.022277
		CHANNELS 3 Zrotation Yrotation Xrotation
		JOINT Spine2
		{
			OFFSET 0.004136 0.129393 -0.002186
			CHANNELS 3 Zrotation Yrotation Xrotation
			JOINT Spine3
			{
				OFFSET 0.001906 0.049304 0.025578
				CHANNELS 3 Zrotation Yrotation Xrotation
				JOINT Neck
				{
					OFFSET -0.004620 0.210958 -0.044063
					CHANNELS 3 Zrotation Yrotation Xrotation
					JOINT Head
					{
						OFFSET 0.003833 0.067393 0.052435
						CHANNELS 3 Zrotation Yrotation Xrotation
						End Site
						{
							OFFSET 0.000000 0.000000 0.000000
						}
					}
				}
				JOINT Left_collar
				{
					OFFSET 0.070771 0.116689 -0.037192
					CHANNELS 3 Zrotation Yrotation Xrotation
					JOINT Left_shoulder
					{
						OFFSET 0.080652 0.031596 -0.005617
						CHANNELS 3 Zrotation Yrotation Xrotation
						JOINT Left_elbow
						{
							OFFSET 0.262654 -0.015020 -0.027939
							CHANNELS 3 Zrotation Yrotation Xrotation
							JOINT Left_wrist
							{
								OFFSET 0.250438 0.010062 -0.000990
								CHANNELS 3 Zrotation Yrotation Xrotation
								JOINT Left_palm
								{
									OFFSET 0.081198 -0.010037 -0.013706
									CHANNELS 3 Zrotation Yrotation Xrotation
									End Site
									{
										OFFSET 0.000000 0.000000 0.000000
									}
								}
							}
						}
					}
				}
				JOINT Right_collar
				{
					OFFSET -0.072972 0.115556 -0.040762
					CHANNELS 3 Zrotation Yrotation Xrotation
					JOINT Right_shoulder
					{
						OFFSET -0.082917 0.031841 -0.006673
						CHANNELS 3 Zrotation Yrotation Xrotation
						JOINT Right_elbow
						{
							OFFSET -0.252882 -0.013790 -0.020410
							CHANNELS 3 Zrotation Yrotation Xrotation
							JOINT Right_wrist
							{
								OFFSET -0.255570 0.009163 -0.005138
								CHANNELS 3 Zrotation Yrotation Xrotation
								JOINT Right_palm
								{
									OFFSET -0.080804 -0.007282 -0.010415
									CHANNELS 3 Zrotation Yrotation Xrotation
									End Site
									{
										OFFSET 0.000000 0.000000 0.000000
									}
								}
							}
						}
					}
				}
			}
		}
	}
}
MOTION
Frames: 13
Frame Time: 0.100000
0.000000 0.000000 0.000000 174.544807 23.389656 -15.137478 5.434943 5.936466 3.232246 -3.500483 -17.252061 -0.713347 -4.753314 16.639804 -5.731682 2.786515 -1.549388 -5.178530 -4.014745 -4.692180 1.918856 4.218854 13.711235 3.145859 5.509803 -14.389212 -6.972924 0.449081 6.216989 4.461359 0.770869 1.665559 2.570232 1.318339 -3.288957 1.538138 1.223907 1.323165 0.871013 -5.325368 -0.944713 9.966316 5.969071 1.441096 -8.183620 -3.719975 3.321545 -8.707173 3.496342 -1.893040 -15.236114 1.065467 -6.007102 -8.273754 1.384496 -5.934918 25.775282 -6.738292 -8.812312 -8.374874 3.778657 -0.919133 -2.956948 -2.028893 -5.968564 -18.186967 -0.031689 8.383209 0.932505 1.306152 6.319557 28.352475 11.097995 8.393134 -6.977291 
0.000743 0.000046 -0.000348 174.539266 23.350730 -15.171137 5.489129 5.957137 3.235404 -3.508059 -17.216630 -0.724139 -4.718915 16.616800 -5.674251 2.747885 -1.463897 -5.227971 -3.964301 -4.654662 1.850160 4.248658 13.706906 3.248201 5.530584 -14.381726 -6.987440 0.297411 6.194070 4.427868 0.760799 1.626017 2.839044 1.321840 -3.322437 1.503819 1.256036 1.279035 0.993237 -5.367651 -0.934822 9.897205 5.988165 1.447255 -8.350665 -3.731090 3.275828 -8.680180 3.148529 -1.876640 -15.236157 1.141473 -5.983909 -8.613760 0.889496 -5.673219 25.341170 -6.793200 -8.772263 -8.276568 3.796760 -0.912650 -3.015212 -1.623266 -5.975091 -18.104742 -0.133709 8.409293 0.888640 1.699897 6.015396 28.287759 11.131326 8.367682 -6.966940 
0.001159 0.000146 -0.000786 174.544369 23.367057 -15.134445 5.488993 5.947775 3.121973 -3.531858 -17.186646 -0.646668 -4.715716 16.596791 -5.664115 2.744087 -1.431648 -5.252035 -3.942883 -4.635061 1.741577 4.258898 13.686674 3.323776 5.527848 -14.395005 -6.998773 0.212427 6.201398 4.426099 0.787003 1.594848 3.027905 1.311158 -3.355353 1.476404 1.262713 1.253440 1.067863 -5.324327 -0.954768 9.882923 6.078494 1.516255 -8.396625 -3.753718 3.261368 -8.656030 2.985631 -1.872405 -15.236303 1.241669 -6.109622 -8.930084 0.613616 -5.626146 24.852672 -6.825499 -8.722284 -8.141290 3.732718 -0.973850 -3.041072 -1.489313 -6.041455 -18.143041 -0.263572 8.405609 0.665561 1.814933 5.898500 28.118130 11.143922 8.345270 -6.917496 
0.001247 0.000276 -0.000972 174.591709 23.338837 -15.108724 5.418602 5.977647 2.972162 -3.593267 -17.200402 -0.376522 -4.623209 16.669290 -5.722845 2.689792 -1.423733 -5.391884 -3.925031 -4.571379 1.310855 4.347657 13.761908 4.123227 5.643345 -14.462303 -7.299873 -0.104652 6.276328 4.324477 0.791256 1.513015 3.347993 1.301594 -3.358031 1.271187 1.290648 1.240078 1.202044 -5.347592 -1.033296 9.988251 6.139779 1.635198 -8.274993 -3.586179 3.372981 -8.655882 2.863997 -1.688411 -15.322013 1.313747 -6.081089 -8.909800 0.441113 -5.472402 24.815253 -6.857888 -8.747365 -8.133750 3.524682 -1.073288 -3.086894 -1.419959 -6.042150 -18.221822 -0.395827 8.465631 0.647626 1.841056 5.860631 28.097544 11.174850 8.302555 -6.913154 
0.000148 0.000184 -0.000057 174.619208 23.368410 -15.072462 5.347495 5.989889 2.992624 -3.637702 -17.260338 -0.277922 -4.613840 16.706978 -5.838430 2.703576 -1.471770 -5.299269 -4.025384 -4.631933 1.428218 4.340939 13.787393 4.048341 5.590623 -14.414219 -7.311180 0.088933 6.209344 4.379684 0.808458 1.518175 3.294844 1.338202 -3.367538 1.567390 1.276857 1.231865 1.159332 -5.324354 -1.113647 10.344017 6.064803 1.699944 -8.125542 -3.727494 3.512599 -8.570043 2.949306 -1.648629 -15.317033 1.344441 -6.102026 -8.468780 1.245335 -5.577474 25.488850 -6.914533 -8.856326 -8.369768 3.584586 -1.258031 -3.027894 -1.725173 -6.137044 -18.429055 -0.368026 8.372018 0.483213 1.382804 6.038162 28.192874 11.252483 8.367156 -6.998187 
-0.001552 0.000139 0.000613 174.651932 23.161071 -15.035979 5.278206 5.985395 2.924213 -3.757689 -17.114013 0.082242 -4.532047 16.752320 -5.991718 2.685997 -1.483816 -5.335496 -4.106754 -4.574342 1.510889 4.311687 13.842193 3.972914 5.590389 -14.294067 -7.269855 0.077502 6.224255 4.389781 0.930481 1.526270 3.461988 1.343679 -3.315781 1.785043 1.250350 1.263185 1.253609 -5.243813 -1.214402 10.410396 5.940035 1.796558 -8.180315 -3.996778 3.931992 -8.440760 2.253198 -1.307572 -15.246897 2.059246 -6.888365 -8.976629 1.938936 -5.592517 24.982779 -7.090925 -8.895579 -8.343342 3.688994 -1.501844 -2.913966 -1.473674 -6.104836 -18.555925 -0.605033 8.697121 0.103528 0.998964 6.114975 27.821122 11.322807 8.376477 -6.938965 
-0.003084 0.000229 0.000475 174.649235 23.069814 -15.027333 5.144009 5.866007 2.621750 -3.908564 -16.897168 0.786023 -4.454824 16.710168 -6.257055 2.878829 -1.422250 -5.452021 -4.162859 -4.514257 1.427124 4.282501 13.692330 4.165055 5.599831 -14.129201 -7.315032 -0.292285 6.353602 4.407920 1.053229 1.561554 3.935195 1.287755 -3.208883 2.173682 1.208519 1.283469 1.331072 -5.085874 -1.632217 10.180659 5.848858 1.864527 -8.431958 -4.990133 4.794586 -8.290653 0.531618 -1.005994 -15.086656 4.496912 -10.012060 -10.863368 3.042568 -5.353424 23.682519 -7.841597 -9.186574 -8.393966 4.231530 -2.043378 -2.809879 -0.502356 -6.147622 -18.585519 -1.586306 10.102219 -1.639252 0.757829 5.905067 25.969290 11.683194 8.626674 -6.769337 
-0.005033 0.000321 -0.000230 174.665685 22.980299 -14.705642 5.043243 5.763206 2.351686 -3.987976 -16.180576 0.672086 -4.333383 16.129122 -6.223971 3.189442 -0.943257 -5.550904 -4.286044 -4.389689 1.152034 4.166685 13.043721 4.006064 5.622150 -13.512858 -7.315203 -0.824770 6.167262 4.783528 1.313731 1.598394 4.159332 1.187760 -2.951601 2.724752 0.999100 1.340715 1.146489 -4.645410 -2.202225 9.929484 5.332652 1.862253 -8.356073 -7.005455 6.516855 -8.316588 -3.154258 -1.112826 -13.710961 9.515100 -17.164458 -12.342878 4.147309 -4.970174 22.660053 -9.119612 -9.879052 -8.856078 5.512910 -3.333831 -2.859095 1.441755 -5.783402 -18.012955 -4.221969 14.760817 -4.058034 0.354487 5.654569 23.618078 12.517983 9.277649 -6.906109 
-0.006326 0.000919 -0.001999 174.722954 22.878588 -14.219091 4.852069 5.238744 1.540353 -4.121093 -14.858357 1.063908 -3.567001 14.857425 -6.085776 3.137018 0.468157 -5.822565 -4.396250 -4.074492 0.464897 4.023355 11.773497 4.197594 5.925595 -12.348593 -7.586185 -2.127749 5.384700 5.214054 1.293674 1.631729 4.657086 1.314389 -2.686007 3.088264 0.716133 1.243096 0.913291 -4.028034 -2.808097 8.752674 4.511116 1.599880 -8.239662 -9.471001 9.209080 -8.122097 -9.998919 -1.274849 -10.180924 17.896260 -28.565143 -13.653663 7.098384 -3.658051 20.681864 -11.300303 -11.091224 -10.278363 8.080486 -5.520662 -3.418244 6.374233 -4.103046 -16.394184 -11.300979 26.284683 -10.497320 -3.045130 5.262173 17.205808 14.802288 10.005518 -7.279755 
-0.008140 0.001602 -0.003403 174.824116 22.136868 -13.682592 4.748418 4.915790 1.093552 -4.084767 -12.752931 0.881121 -2.666894 13.082927 -5.912182 3.011801 2.311686 -5.926971 -4.567878 -3.547352 -0.409678 3.932990 9.893477 4.496915 5.987288 -10.028362 -7.600048 -2.471719 3.755854 5.331297 0.925098 1.590803 4.471446 1.738956 -2.195221 4.412742 0.360164 1.030496 0.030128 -2.472271 -2.113210 8.136285 2.730917 0.396682 -8.237476 -11.981483 12.141628 -7.865804 -18.573382 -0.579202 -4.836209 25.714177 -39.028429 -12.903628 11.217883 -5.094529 21.430876 -12.637488 -11.408580 -12.067537 11.771446 -6.340036 -3.602174 14.114055 0.210037 -11.594496 -18.710219 37.493152 -15.813371 -8.250978 6.780426 9.311309 15.971467 9.448101 -6.583364 
-0.011916 0.002357 -0.003798 174.784159 21.765108 -13.572989 4.636129 4.772239 1.136590 -4.152437 -11.401423 0.691682 -1.775339 11.627100 -5.963385 2.804095 3.703531 -5.950861 -4.914547 -3.275128 -0.627271 3.933071 8.278803 4.640043 5.444871 -8.155536 -7.426887 -1.449702 2.689657 5.475620 0.401664 2.158201 3.889798 2.337262 -1.513094 7.295116 0.114964 1.314735 -1.775809 -1.083069 -1.972390 7.239353 1.627207 -1.633777 -7.387209 -15.451540 12.013758 -6.970445 -25.385853 -0.553719 0.932999 26.638282 -46.256447 -9.075412 14.222577 -5.992692 23.437495 -13.938027 -12.171793 -14.459939 16.979207 -4.003057 -2.215216 21.981384 3.290228 -4.874852 -18.624342 43.554195 -14.622710 -11.325436 7.478477 5.053627 16.864192 9.576332 -6.517389 
-0.017757 0.003567 -0.003132 174.481445 22.075279 -14.294097 4.492210 4.734368 1.654740 -4.346783 -11.552920 1.208536 -1.640335 11.207156 -6.855496 4.078977 3.674749 -5.527249 -5.382258 -3.363045 0.072052 4.123733 7.213076 5.039014 4.037014 -7.264353 -7.236111 0.642198 2.528770 5.062370 -0.082234 3.012561 3.451145 3.289709 -0.964373 11.506041 0.298321 1.869304 -4.175465 -0.586205 -2.869377 5.936707 0.771136 -3.392595 -6.373270 -19.580429 9.277626 -5.143917 -30.216207 -1.785011 6.579044 18.595496 -48.063237 -0.236829 15.980550 -6.021449 25.220251 -15.356419 -13.161487 -16.711357 22.893427 1.520383 0.506176 26.662341 7.579672 1.301915 -8.594104 38.428697 -9.411407 -9.050985 6.914668 -0.639899 16.875868 9.941127 -6.197784 
-0.027730 0.004689 -0.001849 174.231076 22.878036 -15.123822 4.066449 4.651165 2.630931 -4.602470 -12.384038 1.410208 -0.993185 10.809005 -7.534621 4.144400 3.924959 -5.675690 -6.064416 -3.812128 0.703619 4.159975 6.561405 6.303176 3.119062 -7.080814 -7.392909 1.888720 2.671017 4.747997 -0.191191 3.958825 3.326738 4.243509 -0.420178 14.769951 0.564195 2.901796 -5.817344 -0.570576 -4.504560 4.808338 0.561009 -5.326375 -5.822548 -21.657136 5.254618 -3.093508 -35.023409 -3.308861 11.687595 7.097744 -46.011116 11.826365 13.800827 -4.035782 25.759612 -16.318365 -14.030719 -18.360420 27.029669 7.547079 3.354094 30.188236 12.385637 4.923536 -2.206344 27.160020 -6.837888 -4.878097 4.613830 -1.029097 17.013838 10.629244 -7.189358 
